<svg width="33" height="33" viewBox="0 0 33 33" fill="none" xmlns="http://www.w3.org/2000/svg">
<g id="Vector">
<path d="M2.39786 3.52243C2.08735 4.10011 1.93463 4.81274 1.62919 6.238L0.603672 11.0234C-0.0456665 14.0535 2.43763 16.8805 5.74864 16.8805C8.44422 16.8805 10.7012 14.9742 10.9695 12.471L11.0878 11.3663C10.8081 14.3255 13.3072 16.8805 16.4996 16.8805C19.7136 16.8805 22.2251 14.2906 21.9053 11.3059L22.0305 12.471C22.2987 14.9742 24.5557 16.8805 27.2514 16.8805C30.5623 16.8805 33.0457 14.0535 32.3963 11.0234L31.3708 6.238C31.0654 4.81277 30.9125 4.10011 30.6021 3.52243C29.9478 2.30518 28.7705 1.40445 27.3632 1.04441C26.6953 0.873535 25.9167 0.873535 24.3593 0.873535H8.64066C7.08327 0.873535 6.30456 0.873535 5.63669 1.04441C4.22943 1.40445 3.05213 2.30518 2.39786 3.52243Z" fill="white"/>
<path d="M27.2514 19.2815C28.6528 19.2815 29.955 18.9416 31.0787 18.3514V20.0819C31.0787 26.1184 31.0787 29.1367 29.0693 31.0121C27.4517 32.5217 25.0407 32.8161 20.7878 32.8735V27.285C20.7878 25.789 20.7878 25.041 20.4431 24.4838C20.2174 24.1188 19.8925 23.8157 19.5015 23.605C18.9044 23.2833 18.103 23.2833 16.5 23.2833C14.897 23.2833 14.0955 23.2833 13.4985 23.605C13.1074 23.8157 12.7826 24.1188 12.5568 24.4838C12.2121 25.041 12.2121 25.789 12.2121 27.285V32.8735C7.95926 32.8161 5.54816 32.5217 3.93062 31.0121C1.9212 29.1367 1.9212 26.1184 1.9212 20.0819V18.3514C3.04503 18.9416 4.34709 19.2815 5.74868 19.2815C7.80183 19.2815 9.68426 18.5395 11.0876 17.3157C12.5066 18.5326 14.4015 19.2815 16.4996 19.2815C18.5979 19.2815 20.493 18.5324 21.9121 17.3154C23.3155 18.5393 25.198 19.2815 27.2514 19.2815Z" fill="white"/>
</g>
</svg>
