<svg width="56" height="50" viewBox="0 0 56 50" fill="none" xmlns="http://www.w3.org/2000/svg">
<g id="Vector">
<path d="M38.2632 23.34V12.14C38.2632 11.11 37.4233 10.28 36.3935 10.27H27.995C27.995 15.43 23.8157 19.61 18.6667 19.61C13.5076 19.61 9.32833 15.43 9.32833 10.27H2.7995C1.76968 10.27 0.939832 11.11 0.929834 12.14V36.41H38.2632V23.34ZM43.8622 32.67C42.8324 32.67 41.9925 31.84 41.9925 30.81V23.34H38.2632V42.01H42.3824C43.1123 40.31 44.782 39.21 46.6517 39.21C48.5013 39.21 50.181 40.31 50.9209 42.01H55.0502V32.67H43.8522H43.8622ZM13.9975 39.21C15.8472 39.21 17.5269 40.31 18.2667 42.01H38.2632V36.41H0.929834V42.01H9.72826C10.4681 40.31 12.1478 39.21 13.9975 39.21ZM51.3208 43.87C51.3208 44.52 51.1909 45.15 50.9209 45.74H53.1905C54.2203 45.74 55.0602 44.9 55.0602 43.87V42.01H50.9309C51.1909 42.59 51.3308 43.23 51.3308 43.87H51.3208ZM9.72826 42.01H0.929834V43.87C0.929834 44.9 1.76968 45.74 2.7995 45.74H9.72826C9.19836 44.54 9.19836 43.2 9.72826 42.01ZM42.3924 42.01H18.2567C18.7866 43.21 18.7866 44.55 18.2567 45.74H42.3924C41.8625 44.54 41.8625 43.2 42.3924 42.01Z" fill="#9BC9FF"/>
<path d="M45.7218 22.41H39.193V12.14C39.193 10.59 37.9432 9.34 36.3935 9.34H28.8948C28.3949 4.04 23.9757 0 18.6667 0C13.3476 0 8.91841 4.06 8.44849 9.35H2.7995C1.24978 9.35 0 10.6 0 12.15V43.88C0 45.43 1.24978 46.68 2.7995 46.68H9.15836C10.1582 48.42 11.9979 49.48 13.9975 49.48C15.9971 49.48 17.8468 48.42 18.8366 46.68H41.8125C42.8124 48.42 44.662 49.48 46.6617 49.48C48.6613 49.48 50.501 48.42 51.5008 46.68H53.2005C54.7502 46.68 56 45.43 56 43.88V32.68C56 27.02 51.4008 22.42 45.7318 22.42L45.7218 22.41ZM54.0703 31.74H43.8722C43.3423 31.74 42.9223 31.32 42.9223 30.81V24.27H45.7218C50.0011 24.27 53.5904 27.49 54.0703 31.74ZM41.0727 24.27V30.81C41.0727 32.35 42.3124 33.61 43.8722 33.61H54.1203V41.07H51.4908C50.491 39.34 48.6613 38.27 46.6617 38.27C44.662 38.27 42.8124 39.34 41.8125 41.07H39.193V24.27H41.0727ZM18.8366 41.07C17.8368 39.34 15.9971 38.27 13.9975 38.27C11.9979 38.27 10.1482 39.34 9.15836 41.07H1.85967V37.34H37.3233V41.07H18.8266H18.8366ZM18.6667 1.87C23.3058 1.87 27.0652 5.63 27.0652 10.27C27.0652 14.91 23.3058 18.67 18.6667 18.67C14.0275 18.67 10.2682 14.91 10.2682 10.27C10.2682 5.64 14.0275 1.87 18.6667 1.87ZM1.86967 12.14C1.86967 11.62 2.26959 11.21 2.7995 11.21H8.44849C8.91841 16.51 13.3476 20.55 18.6667 20.55C23.9657 20.55 28.4049 16.5 28.8848 11.21H36.3835C36.9034 11.21 37.3133 11.61 37.3133 12.14V35.47H1.86967V12.14ZM2.7995 44.81C2.27959 44.81 1.86967 44.39 1.86967 43.87V42.94H8.46849C8.36851 43.56 8.36851 44.19 8.46849 44.81H2.7995ZM13.9975 47.61C11.9379 47.61 10.2682 45.94 10.2682 43.87C10.2682 41.81 11.9379 40.14 13.9975 40.14C16.0571 40.14 17.7268 41.81 17.7268 43.87C17.7268 45.94 16.0571 47.61 13.9975 47.61ZM19.5165 44.81C19.6165 44.19 19.6165 43.56 19.5165 42.94H41.1427C41.0427 43.56 41.0427 44.19 41.1427 44.81H19.5165ZM46.6617 47.61C44.592 47.61 42.9223 45.94 42.9223 43.87C42.9223 41.81 44.592 40.14 46.6617 40.14C48.7213 40.14 50.391 41.81 50.391 43.87C50.391 45.94 48.7213 47.61 46.6617 47.61ZM54.1203 43.87C54.1203 44.39 53.7204 44.81 53.1905 44.81H52.1707C52.2707 44.19 52.2707 43.56 52.1707 42.94H54.1203V43.87Z" fill="#1E81CE"/>
<path d="M14.9273 11.21H18.6667C19.1666 11.21 19.5965 10.79 19.5965 10.27V4.67C19.5965 4.17 19.1766 3.74 18.6667 3.74C18.1468 3.74 17.7268 4.16 17.7268 4.67V9.34H14.9273C14.4274 9.34 13.9975 9.76 13.9975 10.27C13.9975 10.79 14.4174 11.21 14.9273 11.21Z" fill="#1E81CE"/>
</g>
</svg>
