<svg width="33" height="32" viewBox="0 0 33 32" fill="none" xmlns="http://www.w3.org/2000/svg">
<path id="game_controller-[#794]" fill-rule="evenodd" clip-rule="evenodd" d="M7.17041 17.6H3.7V14.4H7.17041L8.77041 16L7.17041 17.6ZM11.0408 13.7297L11.0328 13.7375L8.49519 11.2H0.5V20.8H8.49519L13.3048 15.9922L11.0408 13.7297ZM29.3 17.6H25.8296L24.2296 16L25.8296 14.4H29.3V17.6ZM24.5048 11.2L19.6952 16.0078L21.9592 18.2703L21.9672 18.2625L24.5048 20.8H32.5V11.2H24.5048ZM18.1 25.3344V28.8H14.9V25.3344L16.5 23.7344L18.1 25.3344ZM14.2328 21.4625L14.2392 21.4703L11.7 24.0078V32H21.3V24.0078L16.4936 19.2L14.2328 21.4625ZM14.9 6.675V3.2H18.1V6.675L16.5 8.275L14.9 6.675ZM18.7752 10.5453L18.7656 10.5375L21.3 8V0H11.7V8L16.5096 12.8078L18.7752 10.5453Z" fill="white"/>
</svg>
