<svg width="33" height="33" viewBox="0 0 33 33" fill="none" xmlns="http://www.w3.org/2000/svg">
<path id="Vector" d="M31.702 13.7705L28.8484 13.429C28.5552 12.3395 28.1271 11.3116 27.5773 10.3571L29.3481 8.10147C29.6213 7.7533 29.5897 7.21688 29.2765 6.90536L26.3346 3.96174C26.023 3.65022 25.4866 3.61857 25.1401 3.88844L22.8812 5.66594C21.93 5.1162 20.9021 4.68807 19.8143 4.3982L19.4744 1.54121C19.4228 1.10475 19.0197 0.746582 18.5799 0.746582H14.4168C13.977 0.746582 13.5739 1.10475 13.5222 1.54121L13.1791 4.39654C12.0912 4.6864 11.0617 5.1162 10.1105 5.66594L7.84989 3.89177C7.50505 3.62023 6.96697 3.65022 6.65711 3.96174L3.71349 6.90869C3.40197 7.22021 3.37032 7.75663 3.64186 8.10313L5.41603 10.3587C4.86462 11.3116 4.43982 12.3411 4.14829 13.4306L1.29463 13.7721C0.858165 13.8238 0.5 14.2253 0.5 14.6684V18.8298C0.5 19.2712 0.858165 19.6727 1.29463 19.7227L4.14996 20.0675C4.44149 21.152 4.86795 22.1815 5.41769 23.1344L3.64519 25.39C3.37365 25.7399 3.4053 26.2763 3.71683 26.5878L6.65711 29.5314C6.96697 29.8446 7.50505 29.8763 7.84989 29.6064L10.1105 27.8272C11.0617 28.377 12.0912 28.8068 13.1791 29.0966L13.5222 31.952C13.5739 32.3884 13.977 32.7466 14.4168 32.7466H18.5799C19.0197 32.7466 19.4228 32.3884 19.4744 31.952L19.8176 29.095C20.9054 28.8051 21.935 28.3753 22.8878 27.8256L25.1468 29.5981C25.4933 29.8679 26.0297 29.8396 26.3396 29.5298L29.2832 26.5811C29.5947 26.268 29.628 25.7315 29.3548 25.3867L27.5806 23.1311C28.132 22.1782 28.5569 21.1487 28.8484 20.0592L31.7054 19.7177C32.1435 19.666 32.5 19.2662 32.5 18.8231V14.6617C32.5 14.2219 32.1418 13.8238 31.702 13.7705ZM16.5008 24.7403C12.0846 24.7403 8.50292 21.162 8.50292 16.7424C8.50292 12.3245 12.0846 8.74283 16.5008 8.74283C20.9188 8.74283 24.4988 12.3228 24.4988 16.7424C24.5004 21.162 20.9188 24.7403 16.5008 24.7403Z" fill="white"/>
</svg>
