<svg width="18" height="17" viewBox="0 0 18 17" fill="none" xmlns="http://www.w3.org/2000/svg">
<g id="Vector">
<path d="M0.111084 6.11556C0.111084 9.43049 3.68391 12.9364 6.29929 15.0588C7.48326 16.0196 8.07526 16.5 8.99997 16.5C9.92468 16.5 10.5167 16.0196 11.7007 15.0588C14.3161 12.9364 17.8889 9.43049 17.8889 6.11553C17.8889 0.57776 12.9998 -1.48978 8.99997 2.78811C5.00012 -1.48978 0.111084 0.577761 0.111084 6.11556Z" fill="#DC5426"/>
<path fill-rule="evenodd" clip-rule="evenodd" d="M13 3.38889C13.3682 3.38889 13.6666 3.68737 13.6666 4.05556V5.16669H14.7778C15.1459 5.16669 15.4444 5.46516 15.4444 5.83335C15.4444 6.20154 15.1459 6.50002 14.7778 6.50002H13.6666V7.61111C13.6666 7.97929 13.3682 8.27778 13 8.27778C12.6318 8.27778 12.3333 7.97929 12.3333 7.61111V6.50002H11.2222C10.854 6.50002 10.5555 6.20154 10.5555 5.83335C10.5555 5.46516 10.854 5.16669 11.2222 5.16669H12.3333V4.05556C12.3333 3.68737 12.6318 3.38889 13 3.38889Z" fill="white"/>
</g>
</svg>
