<svg width="219" height="36" viewBox="0 0 219 36" fill="none" xmlns="http://www.w3.org/2000/svg">
<g id="Logo">
<path id="Fill-1" fill-rule="evenodd" clip-rule="evenodd" d="M14.7808 0.39913C15.9871 0.138052 17.2375 0 18.5213 0C19.9497 0 21.3389 0.171548 22.6681 0.491478V2.89565C23.9476 3.2544 25.1592 3.77468 26.2786 4.43489L27.968 2.74383C30.2124 4.17162 32.1129 6.0937 33.5159 8.3567L31.8224 10.0525C32.4593 11.1663 32.9615 12.3665 33.3036 13.633H35.6993C36.0007 14.9262 36.1611 16.2751 36.1611 17.6603C36.1611 18.9898 36.0132 20.284 35.7359 21.5296H33.3498C33.0153 22.8165 32.5159 24.0364 31.8793 25.1681L33.5759 26.8673C32.1879 29.1406 30.3 31.0736 28.064 32.5155L26.378 30.8279C25.2299 31.5157 23.9854 32.055 22.6681 32.4257V34.8289C21.3389 35.1501 19.9497 35.3213 18.5213 35.3213C17.2375 35.3213 15.9871 35.1823 14.7808 34.9213V32.5368C14.1282 32.3725 13.4944 32.1652 12.8778 31.9198L15.6216 29.1735C16.5502 29.4064 17.5214 29.5322 18.5213 29.5322C25.0698 29.5322 30.3794 24.2174 30.3794 17.6603C30.3794 11.1037 25.0698 5.7888 18.5213 5.7888C11.9713 5.7888 6.66268 11.1037 6.66268 17.6603C6.66268 18.7263 6.80619 19.7584 7.06791 20.7407L4.34134 23.4714C4.08432 22.844 3.86576 22.196 3.69316 21.5296H1.30742C1.02913 20.284 0.881237 18.9898 0.881237 17.6603C0.881237 16.2751 1.04133 14.9262 1.34244 13.633H3.73756C4.10809 12.2685 4.65997 10.9794 5.37006 9.79388L3.68284 8.10626C5.12304 5.86894 7.05352 3.97847 9.32483 2.5873L11.0208 4.2865C12.189 3.62911 13.45 3.11823 14.7808 2.78452V0.39913Z" fill="#FEFEFE"/>
<path id="Combined-Shape" fill-rule="evenodd" clip-rule="evenodd" d="M18.8921 10.2132C19.6069 10.2132 20.3217 10.3193 21.0109 10.5316L16.4776 15.0691L17.4823 18.8222L21.2319 19.828L25.7642 15.2908C25.9409 15.866 26.0439 16.4588 26.0734 17.0549L26.0822 17.4129C26.0822 19.1516 25.4569 20.8904 24.205 22.2617L23.9776 22.4999C22.0922 24.3865 19.4215 25.0061 17.02 24.3591L16.7544 24.282L7.62131 33.4154C5.83704 32.3054 4.30363 30.8287 3.12581 29.0905L2.87891 28.7141L12.0298 19.5516C11.2905 17.1684 11.815 14.4769 13.6062 12.5326L13.8105 12.3197C15.1355 10.9934 16.8499 10.2937 18.5857 10.2198L18.8921 10.2132ZM95.2303 2.16925L95.6299 2.17138C99.1671 2.20954 101.121 2.75558 102.464 3.41485L99.5621 9.68887L99.3243 9.58862C98.2679 9.16783 96.8799 8.92598 95.1921 8.92598L95.0586 8.92659C92.4192 8.95153 91.6158 9.77373 90.6277 17.2886L90.5646 17.737C90.2155 20.236 90.0086 22.031 90.0086 23.3197L90.0107 23.5401C90.05 25.5558 90.6513 26.4176 92.4065 26.4176L92.5717 26.4143C94.2965 26.3427 94.8174 25.1161 95.1921 22.0744L95.4235 20.2247H92.2908L93.1416 14.0724H102.464L101.497 20.9891L101.443 21.3678C100.214 29.99 98.6176 32.5301 92.0591 32.5301L91.7226 32.5274C85.1834 32.4209 83.2391 29.18 83.2391 23.6838L83.2431 23.2224C83.2755 21.3513 83.4981 19.173 83.8191 16.6851C85.0185 7.55798 86.7595 2.16925 95.2303 2.16925ZM51.4446 2.53082L52.1028 13.1067L52.3342 18.1733L53.9213 13.1067L57.5171 2.53082H65.9889L61.9662 32.3313H55.4678L57.7113 15.8405L56.3955 20.1849L52.3342 32.3313H48.0417L47.2678 20.2247L47.1509 15.8405L44.9074 32.3313H38.9499L42.9738 2.53082H51.4446ZM84.4388 2.53082L83.5492 9.12695H75.039L74.3812 14.0724H82.5043L81.6162 20.6266H73.4922L72.7574 25.8945H81.2676L80.4159 32.3313H65.0593L69.0822 2.53082H84.4388ZM118.129 2.45036L120.953 32.3313H113.797L113.527 28.7908H107.995L106.835 32.3313H99.9877L110.625 2.45036H118.129ZM112.599 14.1926L111.439 18.0938L109.968 22.6382H113.062L112.792 18.1335L112.599 14.1926Z" fill="#008AEE"/>
<path id="Combined-Shape_2" fill-rule="evenodd" clip-rule="evenodd" d="M134.452 2.53101C141.493 2.53101 143.621 4.98339 143.621 9.89003C143.621 10.9754 143.542 12.1424 143.349 13.429C142.344 20.6669 140.216 23.483 133.718 23.483H130.507L129.307 32.3309H122.539L126.561 2.53101H134.452ZM134.065 8.84447H132.48L131.358 17.2084H133.872C135.498 17.2084 136.231 16.6853 136.696 13.1879C136.813 12.3834 136.851 11.7407 136.851 11.2173C136.851 9.28805 136.077 8.84447 134.065 8.84447Z" fill="#FEFEFE"/>
<path id="Combined-Shape_3" fill-rule="evenodd" clip-rule="evenodd" d="M157.236 2.4505L160.058 32.3314H152.904L152.632 28.7906H147.101L145.941 32.3314H139.094L149.731 2.4505H157.236ZM151.703 14.1924L150.544 18.0936L149.074 22.638H152.168L151.898 18.1334L151.703 14.1924Z" fill="#FEFEFE"/>
<path id="Combined-Shape_4" fill-rule="evenodd" clip-rule="evenodd" d="M173.597 2.53119C180.483 2.53119 182.493 4.86305 182.493 9.4482C182.493 10.4531 182.377 11.4996 182.223 12.7045C181.719 16.5656 180.558 19.7026 177.505 21.4318L179.398 32.3314H172.59L171.044 22.7187H169.574L168.298 32.3314H161.645L165.667 2.53119H173.597ZM173.016 8.84465H171.47L170.464 16.4444H172.59C174.37 16.4444 175.028 16.0425 175.492 12.8259C175.57 12.1823 175.647 11.6201 175.647 11.1358C175.647 9.24628 174.95 8.84465 173.016 8.84465Z" fill="#FEFEFE"/>
<path id="Fill-25" fill-rule="evenodd" clip-rule="evenodd" d="M188.953 9.12702H183.304L184.194 2.53119H202.453L201.562 9.12702H195.877L192.744 32.3314H185.82L188.953 9.12702Z" fill="#FEFEFE"/>
<path id="Fill-27" fill-rule="evenodd" clip-rule="evenodd" d="M198.544 30.5198L202.027 24.6073C203.07 25.2109 204.965 26.0558 207.055 26.0558C208.873 26.0558 209.452 25.2109 209.452 23.6438C209.452 22.5569 208.873 21.7527 206.049 19.0179C203.767 16.8072 202.064 14.5552 202.064 11.0957C202.064 6.27081 204.62 2.16931 211.27 2.16931C214.366 2.16931 215.837 2.45042 218.118 3.33602L215.333 9.89022C214.404 9.4482 212.856 8.96549 211.117 8.96549C209.878 8.96549 209.067 9.68893 209.067 10.9755C209.067 12.1028 209.878 13.026 212.083 15.1979C214.676 17.7313 216.377 20.0635 216.377 23.5624C216.377 28.3485 214.173 32.5301 206.978 32.5301C202.645 32.5301 200.054 31.3653 198.544 30.5198Z" fill="#FEFEFE"/>
</g>
</svg>
