<svg width="57" height="56" viewBox="0 0 57 56" fill="none" xmlns="http://www.w3.org/2000/svg">
<g id="Vector">
<path d="M13.4933 51.33H55.4933V45.73H1.35334V51.33H6.02334H13.4933ZM6.02334 51.33H13.4933V55.07H6.02334V51.33ZM43.3533 51.33H50.8233V55.07H43.3533V51.33ZM19.0933 21.47V27.07H13.4933V21.47H4.15334V42H28.4233V21.47H19.0933ZM43.3533 21.47V27.07H37.7533V21.47H28.4233V42H52.6933V21.47H43.3533ZM31.2233 0.93V6.53H25.6233V0.93H16.2933V21.47H40.5533V0.93H31.2233Z" fill="#B1D5FF"/>
<path d="M55.4933 44.8001H1.35334C1.10669 44.8001 0.870139 44.898 0.695731 45.0724C0.521322 45.2469 0.42334 45.4834 0.42334 45.7301V51.3301C0.42334 51.8501 0.84334 52.2701 1.35334 52.2701H5.09334V55.0701C5.09334 55.5801 5.50334 56.0001 6.02334 56.0001H13.4933C14.0033 56.0001 14.4233 55.5801 14.4233 55.0701V52.2701H42.4233V55.0701C42.4233 55.5801 42.8433 56.0001 43.3533 56.0001H50.8233C51.3433 56.0001 51.7533 55.5801 51.7533 55.0701V52.2701H55.4933C56.0033 52.2701 56.4233 51.8501 56.4233 51.3301V45.7301C56.4233 45.4834 56.3254 45.2469 56.1509 45.0724C55.9765 44.898 55.74 44.8001 55.4933 44.8001ZM12.5533 54.1301H6.95334V52.2701H12.5533V54.1301ZM49.8933 54.1301H44.2933V52.2701H49.8933V54.1301ZM54.5533 50.4001H2.29334V46.6701H54.5533V50.4001ZM4.15334 42.9301H52.6933C53.2033 42.9301 53.6233 42.5201 53.6233 42.0001V21.4701C53.6247 21.3471 53.6016 21.2251 53.5554 21.1111C53.5093 20.9971 53.441 20.8934 53.3545 20.806C53.268 20.7185 53.1651 20.6492 53.0516 20.6018C52.9381 20.5544 52.8163 20.53 52.6933 20.5301H41.4933V0.930054C41.4933 0.807078 41.469 0.685323 41.4216 0.571833C41.3742 0.458344 41.3048 0.355374 41.2174 0.268884C41.13 0.182393 41.0263 0.114099 40.9123 0.0679549C40.7983 0.0218104 40.6763 -0.00126855 40.5533 5.37693e-05H16.2933C16.1704 -0.00126855 16.0484 0.0218104 15.9344 0.0679549C15.8204 0.114099 15.7167 0.182393 15.6293 0.268884C15.5418 0.355374 15.4724 0.458344 15.4251 0.571833C15.3777 0.685323 15.3533 0.807078 15.3533 0.930054V20.5301H4.15334C4.03036 20.53 3.90861 20.5544 3.79512 20.6018C3.68163 20.6492 3.57866 20.7185 3.49217 20.806C3.40568 20.8934 3.33739 20.9971 3.29124 21.1111C3.2451 21.2251 3.22202 21.3471 3.22334 21.4701V42.0001C3.22334 42.5201 3.64334 42.9301 4.15334 42.9301ZM51.7533 41.0701H29.3533V22.4001H36.8233V27.0701C36.8233 27.5801 37.2433 28.0001 37.7533 28.0001H43.3533C43.8733 28.0001 44.2933 27.5801 44.2933 27.0701V22.4001H51.7533V41.0701ZM42.4233 26.1301H38.6933V22.4001H42.4233V26.1301ZM30.2933 1.87005V5.60005H26.5533V1.87005H30.2933ZM17.2233 1.87005H24.6933V6.53005C24.6933 7.05005 25.1033 7.47005 25.6233 7.47005H31.2233C31.7433 7.47005 32.1533 7.05005 32.1533 6.53005V1.87005H39.6233V20.5301H17.2233V1.87005ZM18.1533 22.4001V26.1301H14.4233V22.4001H18.1533ZM5.09334 22.4001H12.5533V27.0701C12.5533 27.5801 12.9733 28.0001 13.4933 28.0001H19.0933C19.6033 28.0001 20.0233 27.5801 20.0233 27.0701V22.4001H27.4933V41.0701H5.09334V22.4001Z" fill="#1E81CE"/>
<path d="M11.6233 37.33H7.89334C7.64536 37.33 7.40754 37.4285 7.23219 37.6039C7.05685 37.7792 6.95834 38.017 6.95834 38.265C6.95834 38.513 7.05685 38.7508 7.23219 38.9261C7.40754 39.1015 7.64536 39.2 7.89334 39.2H11.6233C11.8713 39.2 12.1091 39.1015 12.2845 38.9261C12.4598 38.7508 12.5583 38.513 12.5583 38.265C12.5583 38.017 12.4598 37.7792 12.2845 37.6039C12.1091 37.4285 11.8713 37.33 11.6233 37.33ZM11.6233 34.53H7.89334C7.64536 34.53 7.40754 34.6285 7.23219 34.8039C7.05685 34.9792 6.95834 35.217 6.95834 35.465C6.95834 35.713 7.05685 35.9508 7.23219 36.1261C7.40754 36.3015 7.64536 36.4 7.89334 36.4H11.6233C11.8713 36.4 12.1091 36.3015 12.2845 36.1261C12.4598 35.9508 12.5583 35.713 12.5583 35.465C12.5583 35.217 12.4598 34.9792 12.2845 34.8039C12.1091 34.6285 11.8713 34.53 11.6233 34.53ZM15.3533 34.53H14.4233C14.1754 34.53 13.9375 34.6285 13.7622 34.8039C13.5868 34.9792 13.4883 35.217 13.4883 35.465C13.4883 35.713 13.5868 35.9508 13.7622 36.1261C13.9375 36.3015 14.1754 36.4 14.4233 36.4H15.3533C15.6013 36.4 15.8391 36.3015 16.0145 36.1261C16.1898 35.9508 16.2883 35.713 16.2883 35.465C16.2883 35.217 16.1898 34.9792 16.0145 34.8039C15.8391 34.6285 15.6013 34.53 15.3533 34.53ZM15.3533 37.33H14.4233C14.1754 37.33 13.9375 37.4285 13.7622 37.6039C13.5868 37.7792 13.4883 38.017 13.4883 38.265C13.4883 38.513 13.5868 38.7508 13.7622 38.9261C13.9375 39.1015 14.1754 39.2 14.4233 39.2H15.3533C15.6013 39.2 15.8391 39.1015 16.0145 38.9261C16.1898 38.7508 16.2883 38.513 16.2883 38.265C16.2883 38.017 16.1898 37.7792 16.0145 37.6039C15.8391 37.4285 15.6013 37.33 15.3533 37.33ZM20.0233 18.67H23.7533C24.0013 18.67 24.2391 18.5715 24.4145 18.3961C24.5898 18.2208 24.6883 17.983 24.6883 17.735C24.6883 17.487 24.5898 17.2492 24.4145 17.0739C24.2391 16.8985 24.0013 16.8 23.7533 16.8H20.0233C19.7754 16.8 19.5375 16.8985 19.3622 17.0739C19.1868 17.2492 19.0883 17.487 19.0883 17.735C19.0883 17.983 19.1868 18.2208 19.3622 18.3961C19.5375 18.5715 19.7754 18.67 20.0233 18.67ZM20.0233 15.87H23.7533C24.0013 15.87 24.2391 15.7715 24.4145 15.5961C24.5898 15.4208 24.6883 15.183 24.6883 14.935C24.6883 14.687 24.5898 14.4492 24.4145 14.2739C24.2391 14.0985 24.0013 14 23.7533 14H20.0233C19.7754 14 19.5375 14.0985 19.3622 14.2739C19.1868 14.4492 19.0883 14.687 19.0883 14.935C19.0883 15.183 19.1868 15.4208 19.3622 15.5961C19.5375 15.7715 19.7754 15.87 20.0233 15.87ZM26.5533 15.87H27.4933C27.7413 15.87 27.9791 15.7715 28.1545 15.5961C28.3298 15.4208 28.4283 15.183 28.4283 14.935C28.4283 14.687 28.3298 14.4492 28.1545 14.2739C27.9791 14.0985 27.7413 14 27.4933 14H26.5533C26.3054 14 26.0675 14.0985 25.8922 14.2739C25.7168 14.4492 25.6183 14.687 25.6183 14.935C25.6183 15.183 25.7168 15.4208 25.8922 15.5961C26.0675 15.7715 26.3054 15.87 26.5533 15.87ZM26.5533 18.67H27.4933C27.7413 18.67 27.9791 18.5715 28.1545 18.3961C28.3298 18.2208 28.4283 17.983 28.4283 17.735C28.4283 17.487 28.3298 17.2492 28.1545 17.0739C27.9791 16.8985 27.7413 16.8 27.4933 16.8H26.5533C26.3054 16.8 26.0675 16.8985 25.8922 17.0739C25.7168 17.2492 25.6183 17.487 25.6183 17.735C25.6183 17.983 25.7168 18.2208 25.8922 18.3961C26.0675 18.5715 26.3054 18.67 26.5533 18.67ZM35.8933 37.33H32.1533C31.9054 37.33 31.6675 37.4285 31.4922 37.6039C31.3168 37.7792 31.2183 38.017 31.2183 38.265C31.2183 38.513 31.3168 38.7508 31.4922 38.9261C31.6675 39.1015 31.9054 39.2 32.1533 39.2H35.8933C36.1413 39.2 36.3791 39.1015 36.5545 38.9261C36.7298 38.7508 36.8283 38.513 36.8283 38.265C36.8283 38.017 36.7298 37.7792 36.5545 37.6039C36.3791 37.4285 36.1413 37.33 35.8933 37.33ZM35.8933 34.53H32.1533C31.9054 34.53 31.6675 34.6285 31.4922 34.8039C31.3168 34.9792 31.2183 35.217 31.2183 35.465C31.2183 35.713 31.3168 35.9508 31.4922 36.1261C31.6675 36.3015 31.9054 36.4 32.1533 36.4H35.8933C36.1413 36.4 36.3791 36.3015 36.5545 36.1261C36.7298 35.9508 36.8283 35.713 36.8283 35.465C36.8283 35.217 36.7298 34.9792 36.5545 34.8039C36.3791 34.6285 36.1413 34.53 35.8933 34.53ZM39.6233 34.53H38.6933C38.4454 34.53 38.2075 34.6285 38.0322 34.8039C37.8568 34.9792 37.7583 35.217 37.7583 35.465C37.7583 35.713 37.8568 35.9508 38.0322 36.1261C38.2075 36.3015 38.4454 36.4 38.6933 36.4H39.6233C39.8713 36.4 40.1091 36.3015 40.2845 36.1261C40.4598 35.9508 40.5583 35.713 40.5583 35.465C40.5583 35.217 40.4598 34.9792 40.2845 34.8039C40.1091 34.6285 39.8713 34.53 39.6233 34.53ZM39.6233 37.33H38.6933C38.4454 37.33 38.2075 37.4285 38.0322 37.6039C37.8568 37.7792 37.7583 38.017 37.7583 38.265C37.7583 38.513 37.8568 38.7508 38.0322 38.9261C38.2075 39.1015 38.4454 39.2 38.6933 39.2H39.6233C39.8713 39.2 40.1091 39.1015 40.2845 38.9261C40.4598 38.7508 40.5583 38.513 40.5583 38.265C40.5583 38.017 40.4598 37.7792 40.2845 37.6039C40.1091 37.4285 39.8713 37.33 39.6233 37.33Z" fill="#1E81CE"/>
</g>
</svg>
