<svg width="33" height="32" viewBox="0 0 33 32" fill="none" xmlns="http://www.w3.org/2000/svg">
<path id="Vector" d="M31.702 13.0239L28.8484 12.6824C28.5552 11.5929 28.1271 10.565 27.5773 9.6105L29.3481 7.35489C29.6213 7.00671 29.5897 6.4703 29.2765 6.15878L26.3346 3.21516C26.023 2.90364 25.4866 2.87199 25.1401 3.14186L22.8812 4.91936C21.93 4.36962 20.9021 3.94149 19.8143 3.65162L19.4744 0.794628C19.4228 0.358166 19.0197 0 18.5799 0H14.4168C13.977 0 13.5739 0.358166 13.5222 0.794628L13.1791 3.64996C12.0912 3.93982 11.0617 4.36962 10.1105 4.91936L7.84989 3.14519C7.50505 2.87365 6.96697 2.90364 6.65711 3.21516L3.71349 6.16211C3.40197 6.47363 3.37032 7.01005 3.64186 7.35655L5.41603 9.61216C4.86462 10.565 4.43982 11.5946 4.14829 12.6841L1.29463 13.0256C0.858165 13.0772 0.5 13.4787 0.5 13.9218V18.0832C0.5 18.5246 0.858165 18.9261 1.29463 18.9761L4.14996 19.3209C4.44149 20.4054 4.86795 21.435 5.41769 22.3878L3.64519 24.6434C3.37365 24.9933 3.4053 25.5297 3.71683 25.8412L6.65711 28.7848C6.96697 29.098 7.50505 29.1297 7.84989 28.8598L10.1105 27.0806C11.0617 27.6304 12.0912 28.0602 13.1791 28.35L13.5222 31.2054C13.5739 31.6418 13.977 32 14.4168 32H18.5799C19.0197 32 19.4228 31.6418 19.4744 31.2054L19.8176 28.3484C20.9054 28.0585 21.935 27.6287 22.8878 27.079L25.1468 28.8515C25.4933 29.1213 26.0297 29.093 26.3396 28.7832L29.2832 25.8346C29.5947 25.5214 29.628 24.985 29.3548 24.6401L27.5806 22.3845C28.132 21.4316 28.5569 20.4021 28.8484 19.3126L31.7054 18.9711C32.1435 18.9195 32.5 18.5197 32.5 18.0765V13.9151C32.5 13.4754 32.1418 13.0772 31.702 13.0239ZM16.5008 23.9938C12.0846 23.9938 8.50292 20.4154 8.50292 15.9958C8.50292 11.5779 12.0846 7.99625 16.5008 7.99625C20.9188 7.99625 24.4988 11.5762 24.4988 15.9958C24.5004 20.4154 20.9188 23.9938 16.5008 23.9938Z" fill="white"/>
</svg>
