<svg width="347" height="106" viewBox="0 0 347 106" fill="none" xmlns="http://www.w3.org/2000/svg">
<g filter="url(#filter0_d_240_2037)">
<path d="M78.7012 49.7372C78.7012 65.7125 65.7507 78.663 49.7754 78.663C33.8001 78.663 20.8496 65.7125 20.8496 49.7372C20.8496 33.762 33.8001 20.8114 49.7754 20.8114C65.7507 20.8114 78.7012 33.762 78.7012 49.7372Z" fill="#008AEE"/>
<path d="M50.5845 85.5273C50.1588 86.0227 49.3919 86.0227 48.9663 85.5273L42.0894 77.5218C41.4953 76.8301 41.9867 75.7602 42.8985 75.7602H56.6523C57.5641 75.7602 58.0555 76.8301 57.4613 77.5218L50.5845 85.5273Z" fill="#008AEE"/>
</g>
<path fill-rule="evenodd" clip-rule="evenodd" d="M46.0349 32.4757C47.2412 32.2146 48.4916 32.0766 49.7755 32.0766C51.2038 32.0766 52.593 32.2481 53.9222 32.568V34.9722C55.2017 35.331 56.4134 35.8512 57.5327 36.5115L59.2222 34.8204C61.4666 36.2482 63.367 38.1703 64.77 40.4333L63.0765 42.129C63.7135 43.2428 64.2156 44.443 64.5577 45.7096H66.9535C67.2549 47.0028 67.4153 48.3517 67.4153 49.7369C67.4153 51.0664 67.2674 52.3605 66.99 53.6061H64.604C64.2694 54.8931 63.7701 56.113 63.1335 57.2446L64.8301 58.9438C63.4421 61.2172 61.5541 63.1502 59.3181 64.5921L57.6322 62.9045C56.484 63.5922 55.2396 64.1316 53.9222 64.5022V66.9055C52.593 67.2267 51.2038 67.3979 49.7755 67.3979C48.4916 67.3979 47.2412 67.2589 46.0349 66.9978V64.6134C45.3824 64.449 44.7486 64.2418 44.1319 63.9964L46.8757 61.25C47.8044 61.4829 48.7755 61.6088 49.7755 61.6088C56.3239 61.6088 61.6335 56.2939 61.6335 49.7369C61.6335 43.1802 56.3239 37.8654 49.7755 37.8654C43.2255 37.8654 37.9168 43.1802 37.9168 49.7369C37.9168 50.8028 38.0603 51.8349 38.3221 52.8173L35.5955 55.5479C35.3385 54.9206 35.1199 54.2726 34.9473 53.6061H32.5616C32.2833 52.3605 32.1354 51.0664 32.1354 49.7369C32.1354 48.3517 32.2955 47.0028 32.5966 45.7096H34.9917C35.3622 44.3451 35.9141 43.0559 36.6242 41.8704L34.937 40.1828C36.3772 37.9455 38.3077 36.055 40.579 34.6639L42.2749 36.3631C43.4431 35.7057 44.7042 35.1948 46.0349 34.8611V32.4757Z" fill="white"/>
<path fill-rule="evenodd" clip-rule="evenodd" d="M50.1463 42.2895C50.8611 42.2895 51.5759 42.3956 52.265 42.6078L47.7318 47.1454L48.7364 50.8985L52.4861 51.9043L57.0184 47.367C57.195 47.9422 57.2981 48.5351 57.3275 49.1312L57.3363 49.4891C57.3363 51.2279 56.711 52.9666 55.4591 54.338L55.2317 54.5761C53.3463 56.4627 50.6757 57.0823 48.2742 56.4354L48.0085 56.3583L38.8755 65.4916C37.0912 64.3816 35.5578 62.9049 34.38 61.1668L34.1331 60.7903L43.2839 51.6279C42.5446 49.2446 43.0692 46.5532 44.8604 44.6088L45.0646 44.3959C46.3897 43.0696 48.1041 42.3699 49.8398 42.296L50.1463 42.2895Z" fill="white"/>
<defs>
<filter id="filter0_d_240_2037" x="0.849609" y="0.811432" width="97.8516" height="105.087" filterUnits="userSpaceOnUse" color-interpolation-filters="sRGB">
<feFlood flood-opacity="0" result="BackgroundImageFix"/>
<feColorMatrix in="SourceAlpha" type="matrix" values="0 0 0 0 0 0 0 0 0 0 0 0 0 0 0 0 0 0 127 0" result="hardAlpha"/>
<feOffset/>
<feGaussianBlur stdDeviation="10"/>
<feColorMatrix type="matrix" values="0 0 0 0 0 0 0 0 0 0 0 0 0 0 0 0 0 0 0.3 0"/>
<feBlend mode="normal" in2="BackgroundImageFix" result="effect1_dropShadow_240_2037"/>
<feBlend mode="normal" in="SourceGraphic" in2="effect1_dropShadow_240_2037" result="shape"/>
</filter>
</defs>
</svg>
