<svg width="56" height="56" viewBox="0 0 56 56" fill="none" xmlns="http://www.w3.org/2000/svg">
<g id="Vector">
<path d="M44.86 31.605V24.165H39.63C39.43 23.565 39.18 22.965 38.89 22.385L42.59 18.685L37.33 13.425L33.63 17.125C33.06 16.825 32.46 16.585 31.85 16.385V11.155H24.41V16.385C23.81 16.585 23.21 16.835 22.63 17.125L18.93 13.425L13.67 18.685L17.37 22.385C17.07 22.955 16.83 23.555 16.63 24.165H11.4V31.605H16.63C16.83 32.205 17.08 32.805 17.37 33.385L13.67 37.085L18.93 42.345L22.63 38.645C23.2 38.945 23.8 39.185 24.41 39.385V44.615H31.85V39.385C32.45 39.185 33.05 38.935 33.63 38.645L37.33 42.345L42.59 37.085L38.89 33.385C39.19 32.815 39.43 32.215 39.63 31.605H44.86ZM28.13 34.405C24.53 34.405 21.63 31.475 21.63 27.885C21.63 24.285 24.53 21.385 28.13 21.385C31.73 21.385 34.63 24.285 34.63 27.885C34.63 31.485 31.73 34.385 28.13 34.385V34.405Z" fill="#9BC9FF"/>
<path d="M31.85 45.545H24.41C23.91 45.545 23.48 45.125 23.48 44.615V40.045C23.26 39.945 23.04 39.865 22.82 39.765L19.58 43.005C19.4 43.175 19.16 43.275 18.92 43.275C18.67 43.275 18.44 43.175 18.26 42.995L13 37.735C12.64 37.375 12.64 36.785 13 36.415L16.24 33.185C16.14 32.985 16.04 32.755 15.96 32.535H11.39C10.89 32.535 10.46 32.115 10.46 31.605V24.165C10.46 23.665 10.88 23.235 11.39 23.235H15.96C16.06 23.015 16.14 22.795 16.24 22.575L13 19.335C12.64 18.965 12.64 18.375 13 18.015L18.26 12.755C18.63 12.405 19.21 12.405 19.58 12.755L22.81 15.995C23.01 15.895 23.24 15.795 23.46 15.715V11.145C23.46 10.645 23.88 10.215 24.39 10.215H31.83C32.33 10.215 32.76 10.635 32.76 11.145V15.715C32.98 15.815 33.2 15.895 33.42 15.995L36.66 12.755C36.84 12.585 37.08 12.485 37.32 12.485C37.57 12.485 37.8 12.585 37.98 12.765L43.24 18.025C43.6 18.385 43.6 18.975 43.24 19.345L40 22.575C40.1 22.775 40.2 23.005 40.28 23.225H44.85C45.35 23.225 45.78 23.645 45.78 24.155V31.595C45.78 32.095 45.36 32.525 44.85 32.525H40.28C40.18 32.745 40.1 32.965 40 33.185L43.24 36.425C43.6 36.795 43.6 37.385 43.24 37.745L37.98 43.005C37.61 43.355 37.03 43.355 36.66 43.005L33.43 39.765C33.23 39.865 33 39.965 32.78 40.045V44.615C32.78 45.115 32.36 45.545 31.85 45.545ZM30.92 43.685V39.385C30.92 38.985 31.17 38.615 31.56 38.485C32.13 38.315 32.68 38.085 33.21 37.815C33.56 37.635 33.99 37.715 34.27 37.995L37.31 41.045L41.26 37.095L38.22 34.055C37.94 33.775 37.87 33.335 38.05 32.985C38.32 32.445 38.55 31.885 38.73 31.325C38.86 30.925 39.23 30.675 39.63 30.675H43.93V25.075H39.63C39.23 25.075 38.86 24.825 38.73 24.435C38.56 23.865 38.33 23.315 38.06 22.785C37.88 22.435 37.96 22.005 38.24 21.725L41.29 18.685L37.34 14.735L34.3 17.775C34.02 18.055 33.58 18.125 33.23 17.945C32.69 17.675 32.13 17.445 31.57 17.265C31.17 17.135 30.92 16.765 30.92 16.365V12.065H25.32V16.365C25.32 16.765 25.07 17.135 24.68 17.265C24.11 17.435 23.56 17.665 23.03 17.935C22.68 18.115 22.25 18.035 21.97 17.755L18.93 14.705L14.98 18.655L18.02 21.695C18.3 21.975 18.37 22.415 18.19 22.765C17.92 23.305 17.69 23.865 17.51 24.425C17.38 24.825 17.01 25.075 16.61 25.075H12.31V30.675H16.61C17.01 30.675 17.38 30.925 17.51 31.315C17.68 31.885 17.91 32.435 18.18 32.965C18.36 33.315 18.28 33.745 18 34.035L14.95 37.065L18.9 41.015L21.94 37.975C22.22 37.695 22.66 37.625 23.01 37.805C23.55 38.075 24.11 38.305 24.67 38.485C25.07 38.615 25.32 38.985 25.32 39.385V43.685H30.92ZM28.13 35.325C24.03 35.325 20.69 31.995 20.69 27.885C20.69 23.785 24.02 20.445 28.13 20.445C32.23 20.445 35.57 23.775 35.57 27.885C35.57 31.985 32.23 35.315 28.13 35.325ZM28.13 22.305C25.05 22.305 22.55 24.805 22.55 27.885C22.55 30.965 25.05 33.465 28.13 33.465C31.21 33.465 33.71 30.965 33.71 27.885C33.71 24.805 31.21 22.315 28.13 22.305Z" fill="#1E81CE"/>
<path d="M6.75003 28.815C6.25003 28.815 5.82003 28.395 5.82003 27.885C5.82003 15.585 15.82 5.58502 28.12 5.58502C28.62 5.58502 29.05 5.98502 29.05 6.50502C29.05 7.02502 28.63 7.43502 28.12 7.43502C16.83 7.43502 7.69003 16.585 7.68003 27.885C7.68003 28.385 7.28003 28.815 6.75003 28.815ZM28.13 50.185C27.63 50.185 27.2 49.785 27.2 49.265C27.2 48.745 27.62 48.335 28.13 48.335C39.43 48.335 48.57 39.175 48.58 27.885C48.58 27.385 48.98 26.955 49.51 26.955C50.01 26.955 50.44 27.375 50.44 27.885C50.44 40.185 40.44 50.185 28.14 50.185H28.13ZM48.9 9.28502H52.3C52.8 9.28502 53.23 8.88502 53.23 8.36502C53.23 7.86502 52.81 7.43502 52.3 7.43502H46.73C46.21 7.43502 45.79 7.85502 45.79 8.36502V13.945C45.79 14.445 46.21 14.875 46.72 14.875C47.22 14.875 47.64 14.445 47.64 13.935V10.685C51.84 15.415 54.17 21.545 54.14 27.885C54.14 37.665 48.67 46.615 39.97 51.065C31.27 55.515 20.8 54.705 12.87 48.985C12.61 48.785 12.25 48.735 11.94 48.865C11.64 49.005 11.41 49.295 11.38 49.635C11.35 49.975 11.51 50.295 11.78 50.485C20.28 56.625 31.48 57.485 40.81 52.715C50.13 47.945 56.03 38.355 56 27.885C56.03 21.015 53.5 14.385 48.9 9.28502ZM44.47 5.28502C35.99 -0.844981 24.77 -1.71498 15.44 3.05502C6.13003 7.81502 0.260029 17.405 0.260029 27.885C0.230029 34.755 2.76003 41.385 7.36003 46.485H3.96003C3.46003 46.485 3.04003 46.885 3.04003 47.405C3.04003 47.905 3.46003 48.335 3.97003 48.335H9.53003C10.05 48.335 10.47 47.915 10.47 47.405V41.825C10.47 41.325 10.05 40.895 9.54003 40.895C9.04003 40.895 8.62003 41.325 8.62003 41.835V45.105C4.42003 40.375 2.09003 34.245 2.12003 27.905C2.12003 18.125 7.59003 9.17502 16.3 4.72502C25 0.275019 35.47 1.08502 43.4 6.82502C43.8 7.12502 44.4 7.02502 44.7 6.60502C45 6.20502 44.9 5.60502 44.48 5.30502L44.47 5.28502ZM27.2 13.945H29.06V15.805H27.2V13.945ZM17.61 18.685L18.93 17.365L20.23 18.685L18.93 19.985L17.61 18.685ZM14.19 26.955H16.05V28.815H14.19V26.955ZM17.61 37.085L18.91 35.785L20.24 37.085L18.94 38.385L17.61 37.085ZM27.2 39.965H29.06V41.825H27.2V39.965ZM36.01 37.085L37.31 35.785L38.64 37.085L37.34 38.385L36.01 37.085ZM40.21 26.955H42.07V28.815H40.21V26.955ZM36.01 18.685L37.33 17.385L38.63 18.685L37.33 19.985L36.01 18.685Z" fill="#1E81CE"/>
</g>
</svg>
