<svg width="33" height="29" viewBox="0 0 33 29" fill="none" xmlns="http://www.w3.org/2000/svg">
<path id="Vector" fill-rule="evenodd" clip-rule="evenodd" d="M0.555762 17.2237V27.5024C0.555762 28.1625 1.09146 28.6982 1.75152 28.6982H4.32479C4.60797 28.6982 4.88198 28.5978 5.09804 28.4147C5.31409 28.2317 5.45816 27.9779 5.50461 27.6985L6.13597 23.9152H26.8624L27.4922 27.6985C27.5386 27.9779 27.6827 28.2317 27.8988 28.4147C28.1148 28.5978 28.3888 28.6982 28.672 28.6982H31.2469C31.564 28.6982 31.8682 28.5722 32.0924 28.348C32.3167 28.1237 32.4426 27.8196 32.4426 27.5024V17.2237C32.4427 15.3494 31.888 13.5171 30.8483 11.9576L29.6047 10.0922C29.4938 9.92612 29.3988 9.74996 29.3209 9.56606H30.9057C31.1279 9.56606 31.3457 9.50414 31.5346 9.38727C31.7236 9.2704 31.8763 9.1032 31.9755 8.90441L32.3741 8.10724C32.465 7.92505 32.508 7.72266 32.4988 7.51925C32.4896 7.31583 32.4286 7.11812 32.3217 6.94487C32.2147 6.77161 32.0652 6.62855 31.8874 6.52924C31.7097 6.42993 31.5095 6.37765 31.3059 6.37738H28.6162L28.122 3.91252C27.9716 3.16183 27.6082 2.47033 27.0753 1.9207C26.5423 1.37106 25.8623 0.986541 25.1166 0.813116C22.7857 0.271039 19.9127 0 16.4992 0C13.0841 0 10.2127 0.271039 7.88177 0.813116C7.13578 0.986271 6.45546 1.37067 5.92221 1.92033C5.38895 2.46998 5.02533 3.16163 4.87484 3.91252L4.38059 6.37738H1.69412C1.4905 6.37765 1.29032 6.42993 1.11256 6.52924C0.934792 6.62855 0.785334 6.77161 0.678348 6.94487C0.571362 7.11812 0.510391 7.31583 0.501215 7.51925C0.492039 7.72266 0.534961 7.92505 0.625913 8.10724L1.0245 8.90441C1.12362 9.10296 1.27604 9.27 1.46469 9.38686C1.65335 9.50371 1.8708 9.56576 2.09271 9.56606H3.67908C3.60118 9.74994 3.50616 9.9261 3.39529 10.0922L2.15011 11.9576C1.11059 13.5168 0.555762 15.3487 0.555762 17.2237ZM26.0031 9.57244C26.1129 10.1239 26.2952 10.6584 26.5452 11.162H6.45324C6.70355 10.6598 6.88531 10.1257 6.99532 9.57244L8.00294 4.5391C8.03269 4.38861 8.10522 4.2499 8.21183 4.13961C8.31845 4.02932 8.45462 3.95213 8.60401 3.9173C10.6735 3.439 13.3105 3.18869 16.4992 3.18869C19.6879 3.18869 22.3249 3.43741 24.3944 3.9189C24.5439 3.95333 24.6802 4.03017 24.7871 4.14017C24.894 4.25018 24.9669 4.3887 24.9971 4.5391L26.0031 9.57244ZM6.13597 19.1321C6.77024 19.1321 7.37853 18.8802 7.82702 18.4317C8.27552 17.9832 8.52748 17.3749 8.52748 16.7406C8.52748 16.1063 8.27552 15.498 7.82702 15.0496C7.37853 14.6011 6.77024 14.3491 6.13597 14.3491C5.5017 14.3491 4.8934 14.6011 4.44491 15.0496C3.99641 15.498 3.74445 16.1063 3.74445 16.7406C3.74445 17.3749 3.99641 17.9832 4.44491 18.4317C4.8934 18.8802 5.5017 19.1321 6.13597 19.1321ZM29.254 16.7406C29.254 17.3749 29.002 17.9832 28.5535 18.4317C28.105 18.8802 27.4967 19.1321 26.8624 19.1321C26.2282 19.1321 25.6199 18.8802 25.1714 18.4317C24.7229 17.9832 24.4709 17.3749 24.4709 16.7406C24.4709 16.1063 24.7229 15.498 25.1714 15.0496C25.6199 14.6011 26.2282 14.3491 26.8624 14.3491C27.4967 14.3491 28.105 14.6011 28.5535 15.0496C29.002 15.498 29.254 16.1063 29.254 16.7406Z" fill="white"/>
</svg>
