<svg width="20" height="17" viewBox="0 0 20 17" fill="none" xmlns="http://www.w3.org/2000/svg">
<path id="Vector" d="M18.3478 6.76087H14.8696V1.19565C14.8696 0.778261 14.5913 0.5 14.1739 0.5H1.6522C1.2348 0.5 0.956543 0.778261 0.956543 1.19565V13.7174C0.956543 15.2478 2.20872 16.5 3.73915 16.5H15.5652C15.6348 16.5 15.7044 16.5 15.7739 16.4304C15.9131 16.4304 16.0522 16.5 16.2609 16.5C17.7913 16.5 19.0435 15.2478 19.0435 13.7174V7.45652C19.0435 7.03913 18.7652 6.76087 18.3478 6.76087ZM5.82611 8.15217H4.4348C4.01741 8.15217 3.73915 7.87391 3.73915 7.45652C3.73915 7.03913 4.01741 6.76087 4.4348 6.76087H5.82611C6.2435 6.76087 6.52176 7.03913 6.52176 7.45652C6.52176 7.87391 6.2435 8.15217 5.82611 8.15217ZM8.60872 5.36957H4.4348C4.01741 5.36957 3.73915 5.0913 3.73915 4.67391C3.73915 4.25652 4.01741 3.97826 4.4348 3.97826H8.60872C9.02611 3.97826 9.30437 4.25652 9.30437 4.67391C9.30437 5.0913 9.02611 5.36957 8.60872 5.36957ZM17.6522 13.7174C17.6522 14.4826 17.0261 15.1087 16.2609 15.1087C16.1218 15.1087 15.9826 15.1087 15.8435 15.0391C15.4261 14.9 15.1478 14.5522 15.0087 14.2043V14.1348C14.8696 13.9957 14.8696 13.8565 14.8696 13.7174V8.15217H17.6522V13.7174Z" fill="#0043EE"/>
</svg>
