<svg width="16" height="15" viewBox="0 0 16 15" fill="none" xmlns="http://www.w3.org/2000/svg">
<path id="Vector" d="M9.49785 6.84167e-07C10.8706 -0.000654544 12.2021 0.469343 13.2702 1.33161C14.3384 2.19387 15.0786 3.39628 15.3675 4.73829C15.6564 6.0803 15.4765 7.48079 14.8577 8.70618C14.2389 9.93157 13.2188 10.9078 11.9673 11.472C11.5673 12.3564 10.9588 13.1305 10.1939 13.728C9.42899 14.3256 8.53058 14.7286 7.57569 14.9027C6.62081 15.0768 5.63796 15.0166 4.71143 14.7274C3.78489 14.4382 2.94233 13.9286 2.256 13.2423C1.56967 12.556 1.06005 11.7134 0.770857 10.7869C0.481661 9.86033 0.421517 8.87748 0.595581 7.9226C0.769645 6.96771 1.17272 6.0693 1.77025 5.30441C2.36777 4.53951 3.14191 3.93096 4.02627 3.53095C4.50197 2.47841 5.2712 1.58544 6.24171 0.959146C7.21222 0.332852 8.3428 -0.000177834 9.49785 6.84167e-07ZM7.2474 5.25104H5.74711V6.00119C5.2596 6 4.79078 6.18871 4.44004 6.5273C4.08929 6.86589 3.88418 7.32777 3.86818 7.81502C3.85219 8.30227 4.02656 8.7766 4.35434 9.13747C4.68212 9.49834 5.13754 9.71739 5.62408 9.74818L5.74711 9.75193H7.2474L7.31492 9.75794C7.4014 9.77359 7.47963 9.81912 7.53597 9.88658C7.5923 9.95403 7.62317 10.0391 7.62317 10.127C7.62317 10.2149 7.5923 10.3 7.53597 10.3674C7.47963 10.4349 7.4014 10.4804 7.31492 10.4961L7.2474 10.5021H4.24681V12.0024H5.74711V12.7525H7.2474V12.0024C7.73492 12.0036 8.20373 11.8149 8.55447 11.4763C8.90522 11.1377 9.11033 10.6758 9.12633 10.1886C9.14233 9.7013 8.96796 9.22697 8.64017 8.8661C8.31239 8.50523 7.85697 8.28618 7.37043 8.25539L7.2474 8.25164H5.74711L5.67959 8.24564C5.59312 8.22998 5.51488 8.18445 5.45854 8.11699C5.40221 8.04954 5.37135 7.96445 5.37135 7.87656C5.37135 7.78868 5.40221 7.70358 5.45854 7.63613C5.51488 7.56868 5.59312 7.52315 5.67959 7.50749L5.74711 7.50149H8.7477V6.00119H7.2474V5.25104ZM9.49785 1.5003C8.86224 1.49955 8.23371 1.63378 7.65385 1.8941C7.07399 2.15441 6.55601 2.53489 6.13418 3.01035C6.98205 2.95888 7.83118 3.08798 8.62543 3.38913C9.41968 3.69028 10.141 4.15661 10.7416 4.75728C11.3422 5.35795 11.8084 6.07928 12.1095 6.87356C12.4105 7.66785 12.5395 8.517 12.4879 9.36486C13.17 8.75846 13.6516 7.95904 13.8688 7.07264C14.0861 6.18623 14.0287 5.25473 13.7044 4.40166C13.3801 3.5486 12.8041 2.81429 12.0528 2.29612C11.3015 1.77795 10.4105 1.5004 9.49785 1.5003Z" fill="#5FB865"/>
</svg>
