<svg width="16" height="17" viewBox="0 0 16 17" fill="none" xmlns="http://www.w3.org/2000/svg">
<g id="Vector">
<path fill-rule="evenodd" clip-rule="evenodd" d="M6.5 1.5H12.5V8.5C12.5 8.58847 12.4766 8.67535 12.432 8.75179C12.3875 8.82823 12.3235 8.89149 12.2465 8.93511C12.1696 8.97873 12.0824 9.00114 11.9939 9.00007C11.9055 8.99899 11.8189 8.97447 11.743 8.929L9.5 7.583L7.257 8.93C7.18104 8.97552 7.09436 9.00004 7.00581 9.00107C6.91727 9.0021 6.83004 8.9796 6.75304 8.93586C6.67605 8.89213 6.61205 8.82873 6.56759 8.75215C6.52313 8.67557 6.4998 8.58855 6.5 8.5V1.5Z" fill="#008AEE"/>
<path d="M3.5 0.5H13.5C14.0304 0.5 14.5391 0.710714 14.9142 1.08579C15.2893 1.46086 15.5 1.96957 15.5 2.5V14.5C15.5 15.0304 15.2893 15.5391 14.9142 15.9142C14.5391 16.2893 14.0304 16.5 13.5 16.5H3.5C2.96957 16.5 2.46086 16.2893 2.08579 15.9142C1.71071 15.5391 1.5 15.0304 1.5 14.5V13.5H2.5V14.5C2.5 14.7652 2.60536 15.0196 2.79289 15.2071C2.98043 15.3946 3.23478 15.5 3.5 15.5H13.5C13.7652 15.5 14.0196 15.3946 14.2071 15.2071C14.3946 15.0196 14.5 14.7652 14.5 14.5V2.5C14.5 2.23478 14.3946 1.98043 14.2071 1.79289C14.0196 1.60536 13.7652 1.5 13.5 1.5H3.5C3.23478 1.5 2.98043 1.60536 2.79289 1.79289C2.60536 1.98043 2.5 2.23478 2.5 2.5V3.5H1.5V2.5C1.5 1.96957 1.71071 1.46086 2.08579 1.08579C2.46086 0.710714 2.96957 0.5 3.5 0.5Z" fill="#008AEE"/>
<path d="M1.5 5.5V5C1.5 4.86739 1.55268 4.74022 1.64645 4.64645C1.74021 4.55268 1.86739 4.5 2 4.5C2.13261 4.5 2.25979 4.55268 2.35355 4.64645C2.44732 4.74022 2.5 4.86739 2.5 5V5.5H3C3.13261 5.5 3.25979 5.55268 3.35355 5.64645C3.44732 5.74022 3.5 5.86739 3.5 6C3.5 6.13261 3.44732 6.25979 3.35355 6.35355C3.25979 6.44732 3.13261 6.5 3 6.5H1C0.867392 6.5 0.740215 6.44732 0.646447 6.35355C0.552678 6.25979 0.5 6.13261 0.5 6C0.5 5.86739 0.552678 5.74022 0.646447 5.64645C0.740215 5.55268 0.867392 5.5 1 5.5H1.5ZM1.5 8.5V8C1.5 7.86739 1.55268 7.74022 1.64645 7.64645C1.74021 7.55268 1.86739 7.5 2 7.5C2.13261 7.5 2.25979 7.55268 2.35355 7.64645C2.44732 7.74022 2.5 7.86739 2.5 8V8.5H3C3.13261 8.5 3.25979 8.55268 3.35355 8.64645C3.44732 8.74022 3.5 8.86739 3.5 9C3.5 9.13261 3.44732 9.25979 3.35355 9.35355C3.25979 9.44732 3.13261 9.5 3 9.5H1C0.867392 9.5 0.740215 9.44732 0.646447 9.35355C0.552678 9.25979 0.5 9.13261 0.5 9C0.5 8.86739 0.552678 8.74022 0.646447 8.64645C0.740215 8.55268 0.867392 8.5 1 8.5H1.5ZM1.5 11.5V11C1.5 10.8674 1.55268 10.7402 1.64645 10.6464C1.74021 10.5527 1.86739 10.5 2 10.5C2.13261 10.5 2.25979 10.5527 2.35355 10.6464C2.44732 10.7402 2.5 10.8674 2.5 11V11.5H3C3.13261 11.5 3.25979 11.5527 3.35355 11.6464C3.44732 11.7402 3.5 11.8674 3.5 12C3.5 12.1326 3.44732 12.2598 3.35355 12.3536C3.25979 12.4473 3.13261 12.5 3 12.5H1C0.867392 12.5 0.740215 12.4473 0.646447 12.3536C0.552678 12.2598 0.5 12.1326 0.5 12C0.5 11.8674 0.552678 11.7402 0.646447 11.6464C0.740215 11.5527 0.867392 11.5 1 11.5H1.5Z" fill="#008AEE"/>
</g>
</svg>
