<svg width="33" height="32" viewBox="0 0 33 32" fill="none" xmlns="http://www.w3.org/2000/svg">
<g id="Vector">
<path fill-rule="evenodd" clip-rule="evenodd" d="M16.498 32C7.67618 32 0.5 24.8217 0.5 16C0.5 7.17835 7.67618 0 16.498 0C25.3218 0 32.5 7.17835 32.5 16C32.5 24.8217 25.3218 32 16.498 32ZM16.5 4C9.88166 4 4.5 9.38303 4.5 16C4.5 22.617 9.88362 28 16.5 28C23.1164 28 28.5 22.617 28.5 16C28.5 9.38303 23.1183 4 16.5 4Z" fill="white"/>
<path fill-rule="evenodd" clip-rule="evenodd" d="M16.484 12C11.852 12 8.288 13.594 6.562 16.692C6.636 17.638 6.87 18.548 7.234 19.396C9.676 18.092 14.336 23.056 12.87 25.266C14.03 25.674 15.152 25.976 16.464 25.976C17.754 25.976 19.098 25.74 20.238 25.346C18.77 23.136 23.288 18.276 25.746 19.608C26.122 18.732 26.364 17.796 26.434 16.816C24.69 13.75 21.086 12 16.484 12ZM16.504 18.312C15.254 18.312 14.25 17.292 14.25 16.03C14.25 14.768 15.254 13.748 16.504 13.748C17.742 13.748 18.75 14.768 18.75 16.03C18.75 17.292 17.742 18.312 16.504 18.312Z" fill="white"/>
</g>
</svg>
