<svg width="57" height="56" viewBox="0 0 57 56" fill="none" xmlns="http://www.w3.org/2000/svg">
<g id="Vector">
<path d="M48.4362 13.97L41.9062 0.93H27.9062L29.7662 13.97H48.4362ZM22.3062 0.93H8.30619L1.76619 13.97H20.4362L22.3062 0.93ZM29.7662 13.97V28.87H20.4362V13.97H1.76619V51.23H39.5362C35.6962 47.7 33.5062 42.73 33.5062 37.53V32.6L44.7062 28.87L48.4362 30.11V13.98H29.7662V13.97Z" fill="#B1D5FF"/>
<path d="M34.4362 50.3H2.70619V14.9H19.5062V28.87C19.5062 29.39 19.9062 29.8 20.4362 29.8H29.7662C30.2862 29.8 30.7062 29.4 30.7062 28.87V14.9H47.5062V26.47C47.5062 26.97 47.9062 27.4 48.4362 27.4C48.9562 27.4 49.3662 26.98 49.3662 26.47V13.97C49.3662 13.97 49.3662 13.95 49.3662 13.94C49.3662 13.84 49.3362 13.74 49.3062 13.64C49.3062 13.64 49.3062 13.61 49.2862 13.59C49.2862 13.56 49.2862 13.56 49.2862 13.54L42.7362 0.52C42.5762 0.2 42.2562 0 41.9062 0H8.30619C7.94619 0 7.62619 0.2 7.46619 0.52L0.936191 13.55C0.936191 13.57 0.936191 13.58 0.936191 13.59C0.916191 13.59 0.906191 13.62 0.896191 13.64C0.866191 13.74 0.846191 13.84 0.846191 13.94C0.846191 13.94 0.846191 13.94 0.846191 13.96V51.22C0.846191 51.72 1.26619 52.15 1.77619 52.15H34.4362C34.9562 52.15 35.3662 51.73 35.3662 51.22C35.3662 50.7 34.9662 50.29 34.4362 50.29V50.3ZM28.8362 27.94H21.3662V14.9H28.8362V27.94ZM46.9362 13.04H30.5662L28.9662 1.86H41.3362L46.9362 13.04ZM27.0862 1.86L28.6862 13.04H21.5062L23.1062 1.86H27.0862ZM8.86619 1.86H21.2362L19.6362 13.04H3.26619L8.86619 1.86Z" fill="#1E81CE"/>
<path d="M14.8362 40.98H7.36619C6.86619 40.98 6.43619 41.4 6.43619 41.91C6.43619 42.44 6.85619 42.85 7.36619 42.85H14.8362C15.3562 42.85 15.7662 42.45 15.7662 41.92C15.7662 41.42 15.3662 41 14.8362 41V40.98ZM14.8362 44.7H7.36619C6.86619 44.7 6.43619 45.12 6.43619 45.64C6.43619 46.14 6.85619 46.57 7.36619 46.57H14.8362C15.3562 46.57 15.7662 46.15 15.7662 45.64C15.7662 45.12 15.3662 44.71 14.8362 44.71V44.7ZM14.8362 37.26H7.36619C6.86619 37.26 6.43619 37.66 6.43619 38.19C6.43619 38.69 6.85619 39.11 7.36619 39.11H14.8362C15.3562 39.11 15.7662 38.69 15.7662 38.18C15.7662 37.65 15.3662 37.24 14.8362 37.24V37.26ZM20.4362 37.26H18.5662C18.0662 37.26 17.6362 37.66 17.6362 38.19C17.6362 38.69 18.0562 39.11 18.5662 39.11H20.4362C20.9562 39.11 21.3662 38.69 21.3662 38.18C21.3662 37.65 20.9662 37.24 20.4362 37.24V37.26ZM20.4362 40.98H18.5662C18.0662 40.98 17.6362 41.4 17.6362 41.91C17.6362 42.44 18.0562 42.85 18.5662 42.85H20.4362C20.9562 42.85 21.3662 42.45 21.3662 41.92C21.3662 41.42 20.9662 41 20.4362 41V40.98ZM20.4362 44.7H18.5662C18.0662 44.7 17.6362 45.12 17.6362 45.64C17.6362 46.14 18.0562 46.57 18.5662 46.57H20.4362C20.9562 46.57 21.3662 46.15 21.3662 45.64C21.3662 45.12 20.9662 44.71 20.4362 44.71V44.7Z" fill="#1E81CE"/>
<path d="M56.1962 31.7L44.9962 28C44.7962 27.93 44.5962 27.93 44.3962 28L33.1962 31.7C32.8262 31.84 32.5662 32.2 32.5662 32.6V37.54C32.5662 44.08 35.8362 50.18 41.2962 53.81L44.1962 55.74C44.4962 55.94 44.8962 55.94 45.2162 55.74L48.1162 53.82C53.5562 50.2 56.8362 44.1 56.8362 37.55V32.6C56.8362 32.2 56.5762 31.84 56.1962 31.7ZM54.9662 37.54C54.9662 43.44 52.0162 48.98 47.0662 52.26L44.7062 53.83L42.3362 52.26C37.3962 48.98 34.4362 43.46 34.4362 37.54V33.27L44.7062 29.85L54.9662 33.27V37.54Z" fill="#1E81CE"/>
<path d="M44.7362 50.45C44.8762 50.65 45.0962 50.8 45.3362 50.85C45.5762 50.89 45.8362 50.85 46.0362 50.71C49.3862 48.51 51.7562 45.09 52.6762 41.19C52.7962 40.69 52.4762 40.19 51.9762 40.07C51.4762 39.95 50.9762 40.27 50.8762 40.77C50.0562 44.2 47.9562 47.21 45.0062 49.17C44.8062 49.3 44.6562 49.52 44.6062 49.77C44.5562 50 44.6062 50.25 44.7462 50.47L44.7362 50.45ZM52.1662 38.47C52.6862 38.47 53.1062 38.05 53.1062 37.54V36.22C53.1062 35.7 52.6862 35.28 52.1662 35.28C51.6662 35.28 51.2362 35.7 51.2362 36.22V37.54C51.2362 38.04 51.6562 38.47 52.1662 38.47Z" fill="#1E81CE"/>
</g>
</svg>
